:FULLY-SPECIFIED
:FORCE-ALL-JOINTS-BE-3DOF
:DEGREES
917
root 2.42102 15.9304 32.0532 1.12849 10.996 362.115
lfemur -7.5658 12.7755 -7.32523
ltibia 22.2764 0 0
lfoot -23.7419 -8.71604 0
ltoes -16.9316 0 0
rfemur -42.4412 -18.611 3.43902
rtibia 75.9457 0 0
rfoot -0.282663 5.28931 0
rtoes -26.8235 0 0
lowerback 2.19869 -2.76417 -3.15498
upperback 0.269758 -3.93124 -4.83753
thorax -0.750243 -1.97048 -2.9803
lowerneck -7.22182 -1.82222 1.83673
upperneck 3.45843 -2.85297 4.46313
head 2.44135 -1.25129 0.966893
lclavicle -2.87581e-14 -4.18976e-14 0
lhumerus -51.5026 -43.9658 106.118
lradius 58.4183 0 0
lwrist 20.2504 0 0
lhand 35.5553 18.6903 0
lfingers 7.12502 0 0
lthumb 58.4422 32.6402 0
rclavicle -2.87581e-14 -4.18976e-14 0
rhumerus -23.3522 -3.49505 -32.3741
rradius 64.7512 0 0
rwrist -19.8493 0 0
rhand -27.432 -46.623 0
rfingers 7.12502 0 0
rthumb -0.83294 -786.755 0
918
root 2.36315 15.9025 32.0959 1.4429 10.2014 362.295
lfemur -6.90421 12.0664 -6.80962
ltibia 21.3493 0 0
lfoot -24.1456 -9.09436 0
ltoes -17.6829 0 0
rfemur -41.7261 -18.0863 2.70193
rtibia 74.289 0 0
rfoot -1.12467 4.8896 0
rtoes -27.8398 0 0
lowerback 1.86808 -2.66442 -2.998
upperback 0.163975 -3.78137 -4.98515
thorax -0.695433 -1.89714 -3.24229
lowerneck -7.20231 -1.68263 1.90564
upperneck 3.38053 -2.66619 4.42296
head 2.40617 -1.16084 0.950604
lclavicle -2.69847e-14 -4.3619e-14 0
lhumerus -51.938 -43.9291 106.407
lradius 58.2568 0 0
lwrist 20.5684 0 0
lhand 35.92 19.0016 0
lfingers 7.12502 0 0
lthumb 58.7596 32.6616 0
rclavicle -2.69847e-14 -4.3619e-14 0
rhumerus -22.2404 -2.77032 -30.9764
rradius 63.5101 0 0
rwrist -19.7508 0 0
rhand -26.7399 -46.1087 0
rfingers 7.12502 0 0
rthumb -0.164994 -786.771 0
919
root 2.30566 15.8747 32.1382 1.75425 9.41171 362.473
lfemur -6.24581 11.3616 -6.2967
ltibia 20.4277 0 0
lfoot -24.5466 -9.46851 0
ltoes -18.4301 0 0
rfemur -41.0184 -17.5662 1.97251
rtibia 72.6438 0 0
rfoot -1.9623 4.49559 0
rtoes -28.8481 0 0
lowerback 1.54065 -2.56506 -2.84212
upperback 0.0594166 -3.63213 -5.13141
thorax -0.640955 -1.82411 -3.50205
lowerneck -7.18315 -1.54384 1.97503
upperneck 3.3032 -2.48061 4.38307
head 2.37126 -1.07094 0.934274
lclavicle -2.52173e-14 -4.53034e-14 0
lhumerus -52.3693 -43.8933 106.694
lradius 58.0962 0 0
lwrist 20.8846 0 0
lhand 36.2811 19.311 0
lfingers 7.12502 0 0
lthumb 59.0737 32.6842 0
rclavicle -2.52173e-14 -4.53034e-14 0
rhumerus -21.135 -2.05995 -29.5847
rradius 62.2718 0 0
rwrist -19.6509 0 0
rhand -26.0575 -45.5999 0
rfingers 7.12502 0 0
rthumb 0.49364 -786.814 0
920
root 2.24866 15.8471 32.1801 2.06194 8.62867 362.649
lfemur -5.59192 10.6628 -5.78745
ltibia 19.5137 0 0
lfoot -24.9442 -9.83767 0
ltoes -19.1719 0 0
rfemur -40.3193 -17.052 1.25204
rtibia 71.0135 0 0
rfoot -2.79402 4.10806 0
rtoes -29.8462 0 0
lowerback 1.21702 -2.46626 -2.68766
upperback -0.0437123 -3.48383 -5.27597
thorax -0.586902 -1.75152 -3.759
lowerneck -7.16438 -1.40618 2.04482
upperneck 3.22659 -2.29662 4.34356
head 2.33672 -0.981808 0.917928
lclavicle -2.34602e-14 -4.69446e-14 0
lhumerus -52.7957 -43.8584 106.979
lradius 57.9369 0 0
lwrist 21.1983 0 0
lhand 36.6378 19.6179 0
lfingers 7.12502 0 0
lthumb 59.3841 32.7082 0
rclavicle -2.34602e-14 -4.69446e-14 0
rhumerus -20.0382 -1.36587 -28.2019
rradius 61.0389 0 0
rwrist -19.5495 0 0
rhand -25.3864 -45.0976 0
rfingers 7.12502 0 0
rthumb 1.14144 -786.878 0
921
root 2.19227 15.8198 32.2214 2.36536 7.85388 362.822
lfemur -4.9439 9.9715 -5.28285
ltibia 18.6091 0 0
lfoot -25.3377 -10.201 0
ltoes -19.9067 0 0
rfemur -39.6298 -16.5449 0.541858
rtibia 69.4016 0 0
rfoot -3.6183 3.72777 0
rtoes -30.832 0 0
lowerback 0.897835 -2.36822 -2.53494
upperback -0.145206 -3.33673 -5.4185
thorax -0.533368 -1.67951 -4.01259
lowerneck -7.14606 -1.26993 2.11491
upperneck 3.15087 -2.11464 4.30451
head 2.3026 -0.893633 0.901592
lclavicle -2.17182e-14 -4.85369e-14 0
lhumerus -53.2163 -43.8246 107.261
lradius 57.7792 0 0
lwrist 21.5088 0 0
lhand 36.9891 19.9218 0
lfingers 7.12502 0 0
lthumb 59.6898 32.7337 0
rclavicle -2.17182e-14 -4.85369e-14 0
rhumerus -18.952 -0.690039 -26.8307
rradius 59.8136 0 0
rwrist -19.4466 0 0
rhand -24.728 -44.6027 0
rfingers 7.12502 0 0
rthumb 1.77689 -786.961 0
922
root 2.13659 15.7927 32.262 2.66391 7.089 362.992
lfemur -4.30308 9.28914 -4.78388
ltibia 17.7156 0 0
lfoot -25.7264 -10.5577 0
ltoes -20.633 0 0
rfemur -38.9511 -16.0461 -0.15675
rtibia 67.8116 0 0
rfoot -4.43362 3.35549 0
rtoes -31.8034 0 0
lowerback 0.583709 -2.27113 -2.38429
upperback -0.24486 -3.19114 -5.55865
thorax -0.480443 -1.60822 -4.26223
lowerneck -7.12822 -1.1354 2.18522
upperneck 3.07619 -1.93509 4.26601
head 2.26899 -0.806617 0.885293
lclavicle -1.99958e-14 -5.00742e-14 0
lhumerus -53.6305 -43.7922 107.54
lradius 57.6235 0 0
lwrist 21.8153 0 0
lhand 37.3343 20.222 0
lfingers 7.12502 0 0
lthumb 59.9903 32.7608 0
rclavicle -1.99958e-14 -5.00742e-14 0
rhumerus -17.8786 -0.0343963 -25.4742
rradius 58.5986 0 0
rwrist -19.3423 0 0
rhand -24.084 -44.1163 0
rfingers 7.12502 0 0
rthumb 2.39846 -787.06 0
